<?xml version="1.0" standalone="no"?>
<!DOCTYPE svg PUBLIC "-//W3C//DTD SVG 20010904//EN"
 "http://www.w3.org/TR/2001/REC-SVG-20010904/DTD/svg10.dtd">
<svg version="1.0" xmlns="http://www.w3.org/2000/svg"
 width="840.000000pt" height="377.000000pt" viewBox="0 0 840.000000 377.000000"
 preserveAspectRatio="xMidYMid meet">

<g transform="translate(0.000000,377.000000) scale(0.100000,-0.100000)"
fill="#000000" stroke="none">
<path d="M6890 1050 l0 -1010 225 0 225 0 0 284 c0 245 2 287 16 300 8 9 19
16 24 16 17 0 108 -123 267 -362 l158 -237 293 -1 c276 0 292 1 283 18 -20 37
-108 144 -276 332 -283 318 -333 387 -316 432 15 39 90 133 289 365 105 122
214 255 242 295 l51 73 -278 3 -278 3 -18 -23 c-57 -75 -80 -98 -95 -98 -13 0
-39 -55 -105 -223 -48 -122 -98 -240 -110 -262 l-23 -40 -134 0 -135 0 3 25
c2 14 35 103 73 199 l69 175 0 327 c0 303 -1 331 -20 373 l-19 46 -206 0 -205
0 0 -1010z"/>
<path d="M1115 1979 c-124 -17 -154 -30 -293 -134 l-132 -99 -25 -71 c-72
-199 -70 -362 6 -506 72 -135 210 -220 534 -329 285 -96 355 -145 363 -258 3
-48 0 -63 -20 -92 -84 -124 -284 -132 -386 -16 -29 33 -52 89 -52 129 0 16
-19 17 -251 17 l-252 0 7 -61 c32 -280 244 -477 570 -529 108 -18 321 -8 415
19 231 67 390 211 447 406 23 80 23 230 0 310 -52 179 -179 274 -530 395 -99
34 -210 77 -248 96 -170 86 -210 204 -102 303 79 74 188 80 278 18 36 -25 86
-103 86 -134 l0 -23 250 0 250 0 0 38 c0 58 -27 156 -60 221 -22 46 -53 80
-127 147 -110 97 -144 115 -258 139 -95 20 -368 28 -470 14z"/>
<path d="M2493 1932 l-63 -3 0 -158 c0 -147 -1 -160 -22 -186 -21 -27 -24 -27
-94 -22 l-72 7 -7 -100 c-4 -55 -4 -140 0 -190 l7 -90 73 0 c57 0 78 -4 96
-19 l24 -19 -3 -334 c-3 -280 -1 -346 13 -413 32 -153 94 -244 201 -295 136
-65 160 -70 366 -70 l188 0 0 194 0 194 -107 4 c-116 4 -162 19 -184 60 -17
32 -31 330 -24 508 8 199 -1 190 181 190 l134 0 0 185 0 185 -124 0 c-67 0
-137 5 -155 11 l-31 11 0 179 0 179 -167 -2 c-93 -1 -196 -4 -230 -6z"/>
<path d="M3970 1580 c-276 -74 -483 -272 -570 -545 -31 -99 -39 -293 -16 -401
23 -104 100 -262 170 -346 102 -123 250 -216 412 -259 104 -28 288 -30 389 -4
223 56 418 208 519 405 68 130 89 218 89 370 1 152 -16 229 -78 355 -77 160
-204 288 -358 364 -121 59 -181 73 -342 77 -117 3 -152 1 -215 -16z m336 -423
c249 -127 242 -589 -11 -713 -108 -52 -245 -31 -331 52 -81 79 -134 238 -119
359 27 218 151 340 335 332 56 -3 88 -10 126 -30z"/>
<path d="M5697 1570 c-267 -56 -464 -240 -536 -499 -50 -181 -49 -393 5 -561
68 -216 237 -380 469 -456 107 -35 310 -45 429 -20 216 44 386 165 475 335 35
67 70 177 71 219 0 9 -54 12 -237 12 l-238 0 -38 -65 c-52 -89 -104 -120 -202
-120 -84 0 -131 20 -191 82 -77 79 -112 198 -101 347 8 116 38 203 89 261 52
59 105 84 179 85 119 0 200 -47 229 -134 l12 -36 249 0 c284 0 261 -9 234 94
-89 341 -487 543 -898 456z"/>
</g>
</svg>
