<?xml version="1.0" encoding="UTF-8"?>
<svg id="Camada_1" data-name="Camada 1" xmlns="http://www.w3.org/2000/svg" viewBox="0 0 838.51 376.09">
  <defs>
    <style>
      .cls-1 {
        fill: #e43740;
      }

      .cls-2 {
        fill: #fefdfe;
      }
    </style>
  </defs>
  <path class="cls-1" d="M173.3,184.35c1.12.57,17.74,15.36,18.83,16.72,6.62,8.28,11.22,22.86,10.46,33.44h-50.2c-.39,0-.08-5.11-1.6-7.73-17.96-30.79-63.48,2.87-26.99,22.71,30.18,16.42,81.15,16.02,82.41,63.96,2.15,81.97-146.62,81.56-145.85.48h50.2c.5,0-.04,6.43,1.59,9.89,10.67,22.79,51.08,13.7,43.53-9.98-7.93-24.89-75.9-19.24-91.56-59.06-7.59-19.3-2.71-35.46,4.6-53.72l25.1-18.81c17.75-7.66,62.33-6.72,79.49,2.09Z"/>
  <path class="cls-1" d="M729.73,169.72c1.42,3.48,2.77,6.99,4.18,10.45v64.79c-1.86,4.59-16.18,38.25-14.63,39.7,7.41-1.19,19.17,1.67,25.77.09,2.77-.67,19.48-45.5,22.33-52.33,5.94,1.51,12.19-12.54,13.6-12.54h55.43c-4.6,13.78-59.05,67.52-58.61,76.1.56,10.89,54.24,61.79,60.7,76.48h-58.57c-5.35-8.29-36.89-57.31-41.83-59.59-2.22-1.03-4.19,1.64-4.19,2.11v57.48h-46.02v-202.74h41.84Z"/>
  <path class="cls-1" d="M496.39,295.87c0,44.31-35.95,80.23-80.29,80.23s-80.29-35.92-80.29-80.23,35.95-80.23,80.29-80.23,80.29,35.92,80.29,80.23ZM409.11,257.99c-36.09,6.49-33.32,77.7,7.68,76.65,43.61-1.12,42.42-85.67-7.68-76.65Z"/>
  <path class="cls-1" d="M660.7,274.22h-50.2c-1.13,0-.91-12.54-14.49-15.81-31.96-7.68-38.54,23.39-35.72,48.21,2.44,21.52,24.74,37.58,43.89,22.94,3.66-2.79,7.88-13.54,9.46-13.54h47.07c-7.76,69.68-111.39,79.49-141.16,18.77-12.44-25.37-10.35-63.06,5.14-86.75,32.82-50.21,129.66-38.2,136.02,26.18Z"/>
  <path class="cls-1" d="M267.43,182.26c6.95.13,13.97-.09,20.92,0v34.49c0,5.35,26.28,2.44,31.38,3.14v37.62c-6.27,1.04-27.49-2.29-30.46,1.96-1.96,2.8-1.66,61.53.63,66.52,4.62,10.07,20.95,6.08,29.83,6.77v39.71h-36.61c-2.76,0-19.44-6.61-22.67-8.7-29.57-19.16-14.18-73.1-18.42-102.83-1.67-6.48-17.1-1.97-18.54-3.42-1.33-1.33-1.33-36.31,0-37.64,3.49-3.49,19.61,8.66,18.98-11.51-.32-10.13-.31-16.46-.14-26.1,8.34.11,16.76-.15,25.1,0Z"/>
  <path class="cls-2" d="M729.73,169.72c-14.4-35.28-28.54-70.86-41.83-106.58,6.74,1.14,26.56-2.53,30.36,2.04l45.96,112.91,43.89-112.94c4.39-4.51,21.44-.91,28.29-2.02-22.45,56.62-45.52,113.1-69.02,169.29-2.85,6.83-19.56,51.67-22.33,52.33-6.6,1.59-18.37-1.28-25.77-.09-1.54-1.45,12.77-35.12,14.63-39.7,2.9-7.13,13.94-26.85,14.11-32.76.23-7.78-11.13-24.72-14.11-32.03-1.41-3.46-2.76-6.97-4.18-10.45Z"/>
  <path class="cls-2" d="M518.45,201.07h-25.1v-93.01c0-1.59-4.53-12.8-5.83-15.07-14.03-24.47-54.21-22.74-67.82,2.1-1.65,3.01-5.84,14.6-5.84,17.16v88.83h-25.1V56.85c3.97.65,24.22-.9,25.11-.01,1.18,1.18-1.73,14,1.02,16.72,24.07-29.43,80.34-25.62,97.66,9.04.98,1.95,5.9,14.2,5.9,15.01v103.46Z"/>
  <path class="cls-2" d="M68.71,201.07V56.84c4.2.72,26.24-.96,27.2,0,1.12,1.12-1.7,12.27,1.02,14.63,29.18-29.92,85.77-22.11,99.48,19.76,6.97,21.3,5.74,82.43,4.09,106.77-.4,5.95-5.18,2.18-8.39,3.07-1.09-1.36-17.71-16.15-18.83-16.72-1.54-23.36,2.05-49.12.07-72.18-4.28-50.01-71.5-46.72-77.29-3.92-1.07,7.87-1.82,20.78-2.25,29.1-.78,14.9.52,30.02-.02,44.92l-25.1,18.81Z"/>
  <path class="cls-2" d="M637.69,63.12h39.75v20.9h-39.75v95.1c0,18.31,31.42,7.99,37.79,12.41,3.97,2.76,1.18,16.92,1.96,22.08h-38.7c-2.8,0-16.28-7.55-18.92-10.35-2.97-3.14-9.32-16.43-9.32-19.95v-99.28c0-.94-18.43,1.66-18.86-1.2.65-3.41-.78-18.9.03-19.71s15.52.57,18.84.01V26.54c0-4.68,27.19-4.68,27.19,0v36.58Z"/>
  <path class="cls-2" d="M242.33,182.26c.6-34.79-.45-69.72.01-104.52-3.32-.57-18.06.81-18.85.02-.74-.74-.74-20.18,0-20.92.92-.92,17.93.94,18.85.02s-.4-20.39.49-25.64c4.18-24.56,31.77-33.29,53.9-30.82-.57,3.51.77,20.18,0,20.92-.47.46-9.68-.37-13.14.47-16.77,4.08-16.78,20.57-16.16,35.05h29.29v20.9h-29.29v104.51c-8.34-.15-16.76.11-25.1,0Z"/>
  <rect class="cls-2" x="556.11" y="56.85" width="27.19" height="144.22"/>
  <rect class="cls-2" x="3.86" y="56.85" width="27.19" height="144.22"/>
  <rect class="cls-2" x="323.91" y="56.74" width="27.19" height="144.33"/>
  <ellipse class="cls-2" cx="569.66" cy="17.4" rx="17.42" ry="17.4"/>
  <ellipse class="cls-2" cx="17.42" cy="17.4" rx="17.42" ry="17.4"/>
  <ellipse class="cls-2" cx="337.03" cy="17.45" rx="17.26" ry="17.24"/>
</svg>